<svg xmlns="http://www.w3.org/2000/svg" xmlns:xlink="http://www.w3.org/1999/xlink" width="500" zoomAndPan="magnify" viewBox="0 0 375 374.999991" height="500" preserveAspectRatio="xMidYMid meet" version="1.0"><path fill="#000000" d="M 146.175781 198.082031 L 20.511719 198.082031 C 21.683594 216.9375 25.980469 235.238281 33.328125 252.621094 C 41.753906 272.542969 53.820312 290.4375 69.1875 305.8125 C 70.320312 306.945312 71.476562 308.0625 72.636719 309.15625 L 65.378906 320.257812 L 61.433594 326.296875 C 59.210938 324.277344 57.039062 322.214844 54.90625 320.085938 C 37.6875 302.863281 24.171875 282.816406 14.730469 260.488281 C 6.328125 240.601562 1.484375 219.652344 0.292969 198.082031 C 0.0976562 194.574219 0 191.046875 0 187.5 C 0 184.289062 0.0820312 181.085938 0.238281 177.898438 C 1.335938 155.976562 6.203125 134.699219 14.738281 114.511719 C 24.179688 92.183594 37.703125 72.136719 54.914062 54.914062 C 54.953125 54.878906 54.996094 54.832031 55.035156 54.796875 L 68.96875 69.414062 C 53.707031 84.734375 41.707031 102.546875 33.324219 122.378906 C 25.835938 140.070312 21.523438 158.699219 20.445312 177.90625 L 159.359375 177.90625 Z M 337.738281 261.238281 C 329.640625 277.734375 318.929688 292.695312 305.8125 305.8125 C 290.445312 321.179688 272.550781 333.246094 252.621094 341.671875 C 232.003906 350.390625 210.089844 354.816406 187.5 354.816406 C 164.910156 354.816406 142.996094 350.390625 122.378906 341.671875 C 116.308594 339.105469 110.429688 336.203125 104.753906 332.96875 L 192.960938 198.082031 L 206.160156 177.898438 L 287.578125 53.386719 L 298.640625 36.464844 C 293.226562 32.460938 287.59375 28.761719 281.773438 25.378906 C 274.933594 21.398438 267.832031 17.851562 260.484375 14.738281 C 237.359375 4.957031 212.804688 0 187.5 0 C 162.195312 0 137.640625 4.957031 114.515625 14.738281 C 98.59375 21.464844 83.84375 30.277344 70.441406 41.011719 L 84.089844 55.941406 C 95.773438 46.734375 108.59375 39.15625 122.378906 33.324219 C 142.996094 24.601562 164.910156 20.175781 187.5 20.175781 C 210.089844 20.175781 232.003906 24.601562 252.621094 33.324219 C 258.855469 35.953125 264.890625 38.953125 270.71875 42.292969 L 182.039062 177.898438 L 168.839844 198.082031 L 87.855469 321.9375 L 76.792969 338.859375 L 93.691406 349.890625 C 100.386719 353.765625 107.332031 357.226562 114.515625 360.261719 C 137.640625 370.042969 162.195312 375 187.5 375 C 212.804688 375 237.359375 370.042969 260.484375 360.261719 C 282.808594 350.820312 302.863281 337.296875 320.078125 320.085938 C 337.101562 303.058594 350.503906 283.265625 359.933594 261.238281 Z M 374.761719 177.898438 C 373.664062 155.976562 368.796875 134.699219 360.261719 114.511719 C 350.820312 92.183594 337.296875 72.136719 320.085938 54.914062 C 318.097656 52.925781 316.066406 50.992188 313.996094 49.101562 L 306.238281 60.960938 L 302.78125 66.238281 C 303.800781 67.207031 304.816406 68.191406 305.8125 69.1875 C 321.179688 84.554688 333.246094 102.449219 341.671875 122.371094 C 349.15625 140.0625 353.46875 158.691406 354.546875 177.898438 L 229.769531 177.898438 L 224.8125 185.476562 L 216.570312 198.082031 L 374.707031 198.082031 C 374.902344 194.574219 375 191.039062 375 187.5 C 375 184.289062 374.917969 181.085938 374.761719 177.898438 Z M 374.761719 177.898438 " fill-opacity="1" fill-rule="nonzero"/></svg>